<svg width="17" height="19" viewBox="0 0 17 19" fill="none" xmlns="http://www.w3.org/2000/svg">
<path d="M6.71875 0.125C6.30981 0.125 5.89172 0.268433 5.5957 0.564453C5.29968 0.860473 5.15625 1.27856 5.15625 1.6875V2.46875H0.46875V4.03125H1.25V16.5312C1.25 17.816 2.30896 18.875 3.59375 18.875H12.9688C14.2535 18.875 15.3125 17.816 15.3125 16.5312V4.03125H16.0938V2.46875H11.4062V1.6875C11.4062 1.27856 11.2628 0.860473 10.9668 0.564453C10.6708 0.268433 10.2527 0.125 9.84375 0.125H6.71875ZM6.71875 1.6875H9.84375V2.46875H6.71875V1.6875ZM2.8125 4.03125H13.75V16.5312C13.75 16.9646 13.4021 17.3125 12.9688 17.3125H3.59375C3.1604 17.3125 2.8125 16.9646 2.8125 16.5312V4.03125ZM4.375 6.375V14.9688H5.9375V6.375H4.375ZM7.5 6.375V14.9688H9.0625V6.375H7.5ZM10.625 6.375V14.9688H12.1875V6.375H10.625Z" fill="#E00000"/>
</svg>
